<svg width="40" height="42" viewBox="0 0 40 42" fill="none" xmlns="http://www.w3.org/2000/svg">
<rect width="40" height="41.3491" rx="20" fill="#FF3E79"/>
<path fill-rule="evenodd" clip-rule="evenodd" d="M28 11.3704H12C10.9 11.3704 10.01 12.3007 10.01 13.4378L10 32.0449L14 26.8763H28C29.1 26.8763 30 25.9459 30 24.8088V13.4378C30 12.3007 29.1 11.3704 28 11.3704ZM21 22.742H15C14.45 22.742 14 22.2769 14 21.7083C14 21.1398 14.45 20.6746 15 20.6746H21C21.55 20.6746 22 21.1398 22 21.7083C22 22.2769 21.55 22.742 21 22.742ZM25 17.5734H15C14.45 17.5734 14 17.1082 14 16.5396C14 15.9711 14.45 15.5059 15 15.5059H25C25.55 15.5059 26 15.9711 26 16.5396C26 17.1082 25.55 17.5734 25 17.5734Z" fill="white"/>
<mask id="mask0_0_959" style="mask-type:alpha" maskUnits="userSpaceOnUse" x="10" y="11" width="20" height="22">
<path fill-rule="evenodd" clip-rule="evenodd" d="M28 11.3704H12C10.9 11.3704 10.01 12.3007 10.01 13.4378L10 32.0449L14 26.8763H28C29.1 26.8763 30 25.9459 30 24.8088V13.4378C30 12.3007 29.1 11.3704 28 11.3704ZM21 22.742H15C14.45 22.742 14 22.2769 14 21.7083C14 21.1398 14.45 20.6746 15 20.6746H21C21.55 20.6746 22 21.1398 22 21.7083C22 22.2769 21.55 22.742 21 22.742ZM25 17.5734H15C14.45 17.5734 14 17.1082 14 16.5396C14 15.9711 14.45 15.5059 15 15.5059H25C25.55 15.5059 26 15.9711 26 16.5396C26 17.1082 25.55 17.5734 25 17.5734Z" fill="white"/>
</mask>
<g mask="url(#mask0_0_959)">
</g>
</svg>
