<svg width="40" height="42" viewBox="0 0 40 42" fill="none" xmlns="http://www.w3.org/2000/svg">
<rect width="40" height="41.3491" rx="20" fill="#FF3E79"/>
<path fill-rule="evenodd" clip-rule="evenodd" d="M12.7602 24.0335L15.3002 23.7337C15.9102 23.6614 16.5102 23.8785 16.9402 24.323L18.7802 26.225C21.6102 24.7365 23.9302 22.3486 25.3702 19.4128L23.5202 17.5004C23.0902 17.0559 22.8802 16.4356 22.9502 15.8051L23.2402 13.2001C23.3602 12.156 24.2102 11.3704 25.2302 11.3704H26.9602C28.0902 11.3704 29.0302 12.3421 28.9602 13.5102C28.4302 22.3382 21.6002 29.3882 13.0702 29.9361C11.9402 30.0085 11.0002 29.0368 11.0002 27.8687V26.0803C10.9902 25.0362 11.7502 24.1576 12.7602 24.0335Z" fill="white"/>
</svg>
